<?xml version="1.0" encoding="UTF-8" standalone="no"?>
<!DOCTYPE svg PUBLIC "-//W3C//DTD SVG 1.1//EN"
 "http://www.w3.org/Graphics/SVG/1.1/DTD/svg11.dtd">
<!-- Generated by graphviz version 2.43.0 (0)
 -->
<!-- Title: prof Pages: 1 -->
<svg width="429pt" height="548pt"
 viewBox="0.00 0.00 428.50 548.00" xmlns="http://www.w3.org/2000/svg" xmlns:xlink="http://www.w3.org/1999/xlink">
<g id="graph0" class="graph" transform="scale(1 1) rotate(0) translate(4 544)">
<title>prof</title>
<polygon fill="white" stroke="transparent" points="-4,4 -4,-544 424.5,-544 424.5,4 -4,4"/>
<!-- create_new -->
<g id="node1" class="node">
<title>create_new</title>
<polygon fill="lightgrey" stroke="black" points="420.5,-540 114.5,-540 114.5,-504 420.5,-504 420.5,-540"/>
<text text-anchor="middle" x="267.5" y="-518.3" font-family="Times,serif" font-size="14.00">Create new branch from specific commit</text>
</g>
<!-- check_prs -->
<g id="node2" class="node">
<title>check_prs</title>
<polygon fill="lightgrey" stroke="black" points="301.5,-468 109.5,-468 109.5,-432 301.5,-432 301.5,-468"/>
<text text-anchor="middle" x="205.5" y="-446.3" font-family="Times,serif" font-size="14.00">Check for oustandng prs</text>
</g>
<!-- create_new&#45;&gt;check_prs -->
<g id="edge1" class="edge">
<title>create_new&#45;&gt;check_prs</title>
<path fill="none" stroke="black" d="M252.17,-503.7C244.74,-495.3 235.68,-485.07 227.52,-475.86"/>
<polygon fill="black" stroke="black" points="229.9,-473.27 220.65,-468.1 224.66,-477.91 229.9,-473.27"/>
</g>
<!-- check_webhooks -->
<g id="node6" class="node">
<title>check_webhooks</title>
<polygon fill="lightgrey" stroke="black" points="396.5,-396 262.5,-396 262.5,-360 396.5,-360 396.5,-396"/>
<text text-anchor="middle" x="329.5" y="-374.3" font-family="Times,serif" font-size="14.00">check_webhooks</text>
</g>
<!-- create_new&#45;&gt;check_webhooks -->
<g id="edge6" class="edge">
<title>create_new&#45;&gt;check_webhooks</title>
<path fill="none" stroke="black" d="M284.95,-503.83C293.88,-494.1 304.16,-481.26 310.5,-468 319.84,-448.46 324.63,-424.32 327.06,-406.12"/>
<polygon fill="black" stroke="black" points="330.54,-406.51 328.23,-396.16 323.58,-405.68 330.54,-406.51"/>
</g>
<!-- update_prs -->
<g id="node3" class="node">
<title>update_prs</title>
<polygon fill="lightgrey" stroke="black" points="192,-396 39,-396 39,-360 192,-360 192,-396"/>
<text text-anchor="middle" x="115.5" y="-374.3" font-family="Times,serif" font-size="14.00">update base on prs</text>
</g>
<!-- check_prs&#45;&gt;update_prs -->
<g id="edge2" class="edge">
<title>check_prs&#45;&gt;update_prs</title>
<path fill="none" stroke="red" d="M183.25,-431.7C171.92,-422.88 157.97,-412.03 145.68,-402.47"/>
<polygon fill="red" stroke="red" points="147.53,-399.48 137.49,-396.1 143.24,-405.01 147.53,-399.48"/>
</g>
<!-- copy_branch_protection -->
<g id="node4" class="node">
<title>copy_branch_protection</title>
<polygon fill="lightgrey" stroke="black" points="301,-324 0,-324 0,-288 301,-288 301,-324"/>
<text text-anchor="middle" x="150.5" y="-302.3" font-family="Times,serif" font-size="14.00">copy branch protection from old default</text>
</g>
<!-- check_prs&#45;&gt;copy_branch_protection -->
<g id="edge4" class="edge">
<title>check_prs&#45;&gt;copy_branch_protection</title>
<path fill="none" stroke="black" d="M207.91,-431.81C209.76,-413.28 210.53,-383.32 200.5,-360 195.91,-349.32 188.17,-339.48 180.14,-331.26"/>
<polygon fill="black" stroke="black" points="182.4,-328.57 172.76,-324.17 177.55,-333.62 182.4,-328.57"/>
</g>
<!-- update_prs&#45;&gt;copy_branch_protection -->
<g id="edge3" class="edge">
<title>update_prs&#45;&gt;copy_branch_protection</title>
<path fill="none" stroke="red" d="M124.15,-359.7C128.14,-351.73 132.95,-342.1 137.37,-333.26"/>
<polygon fill="red" stroke="red" points="140.61,-334.61 141.95,-324.1 134.35,-331.48 140.61,-334.61"/>
</g>
<!-- add_protection_to_new -->
<g id="node5" class="node">
<title>add_protection_to_new</title>
<polygon fill="lightgrey" stroke="black" points="283,-252 56,-252 56,-216 283,-216 283,-252"/>
<text text-anchor="middle" x="169.5" y="-230.3" font-family="Times,serif" font-size="14.00">add protection to new branch</text>
</g>
<!-- copy_branch_protection&#45;&gt;add_protection_to_new -->
<g id="edge5" class="edge">
<title>copy_branch_protection&#45;&gt;add_protection_to_new</title>
<path fill="none" stroke="black" d="M155.2,-287.7C157.31,-279.9 159.86,-270.51 162.22,-261.83"/>
<polygon fill="black" stroke="black" points="165.62,-262.67 164.86,-252.1 158.86,-260.84 165.62,-262.67"/>
</g>
<!-- set_new_branch_default -->
<g id="node7" class="node">
<title>set_new_branch_default</title>
<polygon fill="lightgrey" stroke="black" points="291.5,-180 103.5,-180 103.5,-144 291.5,-144 291.5,-180"/>
<text text-anchor="middle" x="197.5" y="-158.3" font-family="Times,serif" font-size="14.00">set_new_branch_default</text>
</g>
<!-- add_protection_to_new&#45;&gt;set_new_branch_default -->
<g id="edge8" class="edge">
<title>add_protection_to_new&#45;&gt;set_new_branch_default</title>
<path fill="none" stroke="black" d="M176.42,-215.7C179.57,-207.81 183.38,-198.3 186.88,-189.55"/>
<polygon fill="black" stroke="black" points="190.19,-190.69 190.66,-180.1 183.69,-188.09 190.19,-190.69"/>
</g>
<!-- report -->
<g id="node9" class="node">
<title>report</title>
<polygon fill="lightgrey" stroke="black" points="299.5,-36 237.5,-36 237.5,0 299.5,0 299.5,-36"/>
<text text-anchor="middle" x="268.5" y="-14.3" font-family="Times,serif" font-size="14.00">report</text>
</g>
<!-- check_webhooks&#45;&gt;report -->
<g id="edge7" class="edge">
<title>check_webhooks&#45;&gt;report</title>
<path fill="none" stroke="black" d="M329.5,-359.95C329.5,-333.29 329.5,-280.11 329.5,-235 329.5,-235 329.5,-235 329.5,-161 329.5,-117.61 305.16,-72.37 287.23,-44.94"/>
<polygon fill="black" stroke="black" points="289.93,-42.68 281.44,-36.34 284.12,-46.59 289.93,-42.68"/>
</g>
<!-- delete_old_default -->
<g id="node8" class="node">
<title>delete_old_default</title>
<polygon fill="lightgrey" stroke="black" points="291.5,-108 145.5,-108 145.5,-72 291.5,-72 291.5,-108"/>
<text text-anchor="middle" x="218.5" y="-86.3" font-family="Times,serif" font-size="14.00">delete_old_default</text>
</g>
<!-- set_new_branch_default&#45;&gt;delete_old_default -->
<g id="edge9" class="edge">
<title>set_new_branch_default&#45;&gt;delete_old_default</title>
<path fill="none" stroke="black" d="M202.69,-143.7C205.03,-135.9 207.85,-126.51 210.45,-117.83"/>
<polygon fill="black" stroke="black" points="213.85,-118.69 213.37,-108.1 207.14,-116.68 213.85,-118.69"/>
</g>
<!-- delete_old_default&#45;&gt;report -->
<g id="edge10" class="edge">
<title>delete_old_default&#45;&gt;report</title>
<path fill="none" stroke="black" d="M230.86,-71.7C236.73,-63.47 243.87,-53.48 250.34,-44.42"/>
<polygon fill="black" stroke="black" points="253.32,-46.28 256.28,-36.1 247.62,-42.21 253.32,-46.28"/>
</g>
</g>
</svg>
